<mxfile host="app.diagrams.net" modified="2023-04-28T17:02:20.434Z" agent="Mozilla/5.0 (Windows NT 10.0; Win64; x64) AppleWebKit/537.36 (KHTML, like Gecko) Chrome/112.0.0.0 Safari/537.36" etag="kM0QqG3zPm71cQ4-cb3n" version="21.1.8" type="device">
  <diagram name="Página-1" id="TC5KTSp6Np99d_PEPzYa">
    <mxGraphModel dx="880" dy="484" grid="1" gridSize="10" guides="1" tooltips="1" connect="1" arrows="1" fold="1" page="1" pageScale="1" pageWidth="827" pageHeight="1169" math="0" shadow="0">
      <root>
        <mxCell id="0" />
        <mxCell id="1" parent="0" />
        <mxCell id="vXybaDPMAChi1mhD5fIq-1" value="Setor" style="swimlane;childLayout=stackLayout;horizontal=1;startSize=50;horizontalStack=0;rounded=1;fontSize=14;fontStyle=0;strokeWidth=2;resizeParent=0;resizeLast=1;shadow=0;dashed=0;align=center;arcSize=4;whiteSpace=wrap;html=1;" vertex="1" parent="1">
          <mxGeometry x="280" y="150" width="120" height="120" as="geometry" />
        </mxCell>
        <mxCell id="vXybaDPMAChi1mhD5fIq-2" value="Código Pk&lt;br&gt;Nome&lt;br&gt;Telefone&lt;br&gt;Coordenador" style="align=left;strokeColor=none;fillColor=none;spacingLeft=4;fontSize=12;verticalAlign=top;resizable=0;rotatable=0;part=1;html=1;" vertex="1" parent="vXybaDPMAChi1mhD5fIq-1">
          <mxGeometry y="50" width="120" height="70" as="geometry" />
        </mxCell>
        <mxCell id="vXybaDPMAChi1mhD5fIq-3" value="Cargo" style="swimlane;childLayout=stackLayout;horizontal=1;startSize=50;horizontalStack=0;rounded=1;fontSize=14;fontStyle=0;strokeWidth=2;resizeParent=0;resizeLast=1;shadow=0;dashed=0;align=center;arcSize=4;whiteSpace=wrap;html=1;" vertex="1" parent="1">
          <mxGeometry x="580" y="140" width="100" height="140" as="geometry" />
        </mxCell>
        <mxCell id="vXybaDPMAChi1mhD5fIq-4" value="Código PK&lt;br&gt;Nome&lt;br&gt;Telefone&lt;br&gt;Salário&lt;br&gt;Codgestor FK" style="align=left;strokeColor=none;fillColor=none;spacingLeft=4;fontSize=12;verticalAlign=top;resizable=0;rotatable=0;part=1;html=1;" vertex="1" parent="vXybaDPMAChi1mhD5fIq-3">
          <mxGeometry y="50" width="100" height="90" as="geometry" />
        </mxCell>
        <mxCell id="vXybaDPMAChi1mhD5fIq-5" value="Projeto" style="swimlane;childLayout=stackLayout;horizontal=1;startSize=50;horizontalStack=0;rounded=1;fontSize=14;fontStyle=0;strokeWidth=2;resizeParent=0;resizeLast=1;shadow=0;dashed=0;align=center;arcSize=4;whiteSpace=wrap;html=1;" vertex="1" parent="1">
          <mxGeometry x="270" y="385" width="140" height="180" as="geometry" />
        </mxCell>
        <mxCell id="vXybaDPMAChi1mhD5fIq-6" value="Codigo PK&lt;br&gt;Datainicio&lt;br&gt;Datafinal&lt;br&gt;Descricao&lt;br&gt;Responsável&lt;br&gt;Valor&lt;br&gt;CodigoFuncionario FK" style="align=left;strokeColor=none;fillColor=none;spacingLeft=4;fontSize=12;verticalAlign=top;resizable=0;rotatable=0;part=1;html=1;" vertex="1" parent="vXybaDPMAChi1mhD5fIq-5">
          <mxGeometry y="50" width="140" height="130" as="geometry" />
        </mxCell>
        <mxCell id="vXybaDPMAChi1mhD5fIq-14" value="Projeto" style="swimlane;childLayout=stackLayout;horizontal=1;startSize=50;horizontalStack=0;rounded=1;fontSize=14;fontStyle=0;strokeWidth=2;resizeParent=0;resizeLast=1;shadow=0;dashed=0;align=center;arcSize=4;whiteSpace=wrap;html=1;" vertex="1" parent="1">
          <mxGeometry x="570" y="390" width="120" height="170" as="geometry" />
        </mxCell>
        <mxCell id="vXybaDPMAChi1mhD5fIq-15" value="CPF PK&lt;br&gt;Nome&lt;br&gt;Telefone&lt;br&gt;Endereço&lt;br&gt;Cidade&lt;br&gt;Estado&amp;nbsp;&lt;br&gt;CodigoCargo PK" style="align=left;strokeColor=none;fillColor=none;spacingLeft=4;fontSize=12;verticalAlign=top;resizable=0;rotatable=0;part=1;html=1;" vertex="1" parent="vXybaDPMAChi1mhD5fIq-14">
          <mxGeometry y="50" width="120" height="120" as="geometry" />
        </mxCell>
        <mxCell id="vXybaDPMAChi1mhD5fIq-17" value="" style="endArrow=none;html=1;rounded=0;entryX=0.01;entryY=0.333;entryDx=0;entryDy=0;entryPerimeter=0;" edge="1" parent="1" target="vXybaDPMAChi1mhD5fIq-4">
          <mxGeometry relative="1" as="geometry">
            <mxPoint x="400" y="220" as="sourcePoint" />
            <mxPoint x="560" y="220" as="targetPoint" />
          </mxGeometry>
        </mxCell>
        <mxCell id="vXybaDPMAChi1mhD5fIq-18" value="1" style="resizable=0;html=1;whiteSpace=wrap;align=left;verticalAlign=bottom;" connectable="0" vertex="1" parent="vXybaDPMAChi1mhD5fIq-17">
          <mxGeometry x="-1" relative="1" as="geometry" />
        </mxCell>
        <mxCell id="vXybaDPMAChi1mhD5fIq-19" value="N" style="resizable=0;html=1;whiteSpace=wrap;align=right;verticalAlign=bottom;" connectable="0" vertex="1" parent="vXybaDPMAChi1mhD5fIq-17">
          <mxGeometry x="1" relative="1" as="geometry">
            <mxPoint x="-6" as="offset" />
          </mxGeometry>
        </mxCell>
        <mxCell id="vXybaDPMAChi1mhD5fIq-20" value="" style="endArrow=none;html=1;rounded=0;" edge="1" parent="1">
          <mxGeometry relative="1" as="geometry">
            <mxPoint x="410" y="474.5" as="sourcePoint" />
            <mxPoint x="570" y="475" as="targetPoint" />
          </mxGeometry>
        </mxCell>
        <mxCell id="vXybaDPMAChi1mhD5fIq-21" value="N" style="resizable=0;html=1;whiteSpace=wrap;align=left;verticalAlign=bottom;" connectable="0" vertex="1" parent="vXybaDPMAChi1mhD5fIq-20">
          <mxGeometry x="-1" relative="1" as="geometry">
            <mxPoint x="2" as="offset" />
          </mxGeometry>
        </mxCell>
        <mxCell id="vXybaDPMAChi1mhD5fIq-22" value="N" style="resizable=0;html=1;whiteSpace=wrap;align=right;verticalAlign=bottom;" connectable="0" vertex="1" parent="vXybaDPMAChi1mhD5fIq-20">
          <mxGeometry x="1" relative="1" as="geometry">
            <mxPoint x="-4" as="offset" />
          </mxGeometry>
        </mxCell>
        <mxCell id="vXybaDPMAChi1mhD5fIq-26" value="" style="endArrow=none;html=1;rounded=0;exitX=0.5;exitY=1;exitDx=0;exitDy=0;" edge="1" parent="1">
          <mxGeometry relative="1" as="geometry">
            <mxPoint x="629.5" y="280" as="sourcePoint" />
            <mxPoint x="629.5" y="390" as="targetPoint" />
          </mxGeometry>
        </mxCell>
        <mxCell id="vXybaDPMAChi1mhD5fIq-27" value="1" style="resizable=0;html=1;whiteSpace=wrap;align=left;verticalAlign=bottom;" connectable="0" vertex="1" parent="vXybaDPMAChi1mhD5fIq-26">
          <mxGeometry x="-1" relative="1" as="geometry">
            <mxPoint x="4" y="19" as="offset" />
          </mxGeometry>
        </mxCell>
        <mxCell id="vXybaDPMAChi1mhD5fIq-28" value="N" style="resizable=0;html=1;whiteSpace=wrap;align=right;verticalAlign=bottom;" connectable="0" vertex="1" parent="vXybaDPMAChi1mhD5fIq-26">
          <mxGeometry x="1" relative="1" as="geometry">
            <mxPoint x="15" y="-2" as="offset" />
          </mxGeometry>
        </mxCell>
      </root>
    </mxGraphModel>
  </diagram>
</mxfile>
